<?xml version="1.0" encoding="utf-8"?>
<!-- Generator: Adobe Illustrator 22.1.0, SVG Export Plug-In . SVG Version: 6.00 Build 0)  -->
<svg version="1.1" id="Layer_1" xmlns="http://www.w3.org/2000/svg" xmlns:xlink="http://www.w3.org/1999/xlink" x="0px" y="0px"
	 viewBox="0 0 576 180" style="enable-background:new 0 0 576 180;" xml:space="preserve">
<style type="text/css">
	.st0{display:none;}
	.st1{display:inline;}
	.st2{fill:#FFFFFF;}
	.st3{fill:none;}
	.st4{fill:#2AACE2;}
	.st5{font-family:'ArialMT';}
	.st6{font-size:85px;}
	.st7{fill:#28ABE2;}
	.st8{font-size:19px;}
	.st9{fill:#FFFFFF;stroke:#00AEEF;stroke-width:4;stroke-miterlimit:10;}
</style>
<g id="VkbNAu.tif" class="st0">
	<g class="st1">
		<path class="st2" d="M73.6-192.8c144.6,0,289.3,0,433.9,0c0,178.7,0,357.3,0,536c-144.6,0-289.3,0-433.9,0
			C73.6,164.6,73.6-14.1,73.6-192.8z M269.9,20.7c7.8-28.1-3.9-39-33.6-39.3c-27-0.2-34.1,10.2-33.2,35.6
			c0.8,23.2,0.4,41.1,32.4,39.2C259.5,54.8,278.8,53.9,269.9,20.7z M308.6,18.8c-6.7,30.8,9.2,37.6,38.5,37.5
			c36.4-0.1,25.2-24.7,27-43.5c3.2-33.5-20.5-29.7-41.6-30.7C304.9-19.2,304.3-2.6,308.6,18.8z M205.5,225.7
			c-5.9,25.4,1.6,38.3,30,36.9c22.6-1.1,38.1-2.8,36.7-32.7c-1.2-25.9-3.5-41.6-35.9-39.7C210.4,191.8,197.8,198.4,205.5,225.7z
			 M308.6,227.2c-8.2,30.4,7.9,35,34.1,35.6c31.6,0.7,31.3-16.8,32.4-40.2c1.4-29.4-13.6-31.7-36.8-32
			C310.4,190.1,301.1,200.8,308.6,227.2z M373.9-87.7c4.3-23.4-4.2-34.6-30.1-33.7c-22.6,0.8-38.3,3.5-38.4,32.3
			c-0.1,28,11.4,36.2,37.9,36.5C369.9-52.1,376.9-64.1,373.9-87.7z M238.5-120.3c-25.2-4.1-36,6.7-35.6,33.5
			c0.4,24.2,8.8,33.6,33.7,34.3c26.9,0.7,35.3-9.4,35.4-35.2C272.3-112.1,265.2-124.4,238.5-120.3z M476.7,124.4
			c3.3-23.8-1-37.8-30.6-37.7c-28.7,0.1-36.4,10.7-36.2,37.4c0.2,25.3,7.7,35.7,34.6,35.7C471.8,159.8,481.6,149.9,476.7,124.4z
			 M473.4,52.2c3.7-42.4-20.9-67.9-59.1-63.5C401,54.8,407,61.4,473.4,52.2z M472,192.9c-9.8-0.6-20.4-2.8-30.4-1.3
			c-10.5,1.5-28,5-29.2,10.5c-3.6,16.8-1.4,35.1,0.2,52.6c0.2,2.2,10.7,5.6,16,4.9C457.5,255.7,477.4,225.8,472,192.9z M105.6,191.7
			c-2.5,3.1-5,6.2-7.6,9.2c11.5,16.9,21.7,35,35.3,50c5.5,6.1,18.6,5.4,28.2,7.8c2.3-17.2,6.1-34.3,6.2-51.5c0-5.2-9.8-14-16-14.9
			C136.7,190.2,121.1,191.7,105.6,191.7z M448.8-46.9c8.7-8.4,23-15.8,24.9-25.6c3.6-18.6-28.2-48.6-47.3-44.9
			c-7.2,1.4-15.7,15.7-16.8,25C406.9-69.1,412.3-49.2,448.8-46.9z M106-12.1c2.1,40.5,13,52,57.4,62.6
			C181.5-14.1,171.6-25.4,106-12.1z M125.9-48.3c30.8-1.6,47.3-10.3,42.3-39.1c-1.9-10.9-8.8-27.9-16.1-29.4
			c-18.8-3.9-49.3,27.2-46.5,46.4C106.8-62.2,118.8-55.6,125.9-48.3z"/>
		<path d="M269.9,20.7c8.9,33.2-10.4,34.1-34.5,35.6c-32,1.9-31.5-16-32.4-39.2c-0.9-25.4,6.2-35.8,33.2-35.6
			C266-18.3,277.7-7.4,269.9,20.7z"/>
		<path d="M308.6,18.8c-4.2-21.4-3.6-37.9,23.9-36.7c21.1,1,44.8-2.8,41.6,30.7c-1.8,18.8,9.4,43.4-27,43.5
			C317.7,56.4,301.9,49.6,308.6,18.8z"/>
		<path d="M205.5,225.7c-7.7-27.3,4.9-33.9,30.8-35.5c32.4-1.9,34.7,13.8,35.9,39.7c1.4,29.9-14.2,31.7-36.7,32.7
			C207.2,264,199.6,251.1,205.5,225.7z"/>
		<path d="M308.6,227.2c-7.5-26.4,1.8-37.1,29.6-36.6c23.2,0.4,38.2,2.7,36.8,32c-1.1,23.3-0.7,40.9-32.4,40.2
			C316.5,262.2,300.4,257.6,308.6,227.2z"/>
		<path d="M373.9-87.7c3,23.6-4,35.6-30.6,35.2c-26.5-0.4-38-8.5-37.9-36.5c0.1-28.8,15.8-31.5,38.4-32.3
			C369.6-122.2,378.2-111.1,373.9-87.7z"/>
		<path d="M238.5-120.3c26.6-4.1,33.8,8.2,33.6,32.6c-0.2,25.8-8.6,35.9-35.4,35.2c-25-0.6-33.4-10.1-33.7-34.3
			C202.6-113.6,213.3-124.4,238.5-120.3z"/>
		<path d="M476.7,124.4c5,25.6-4.9,35.4-32.1,35.4c-27,0-34.4-10.5-34.6-35.7c-0.2-26.6,7.5-37.3,36.2-37.4
			C475.7,86.6,480,100.5,476.7,124.4z"/>
		<path d="M473.4,52.2c-66.5,9.3-72.4,2.6-59.1-63.5C452.5-15.8,477.1,9.8,473.4,52.2z"/>
		<path d="M472,192.9c5.4,32.9-14.5,62.9-43.4,66.7c-5.3,0.7-15.8-2.7-16-4.9c-1.6-17.5-3.8-35.8-0.2-52.6
			c1.2-5.5,18.7-8.9,29.2-10.5C451.7,190.1,462.3,192.3,472,192.9z"/>
		<path d="M105.6,191.7c15.4,0,31.1-1.5,46.2,0.7c6.2,0.9,16,9.7,16,14.9c0,17.2-3.8,34.3-6.2,51.5c-9.6-2.4-22.7-1.7-28.2-7.8
			c-13.6-15-23.8-33.2-35.3-50C100.6,197.8,103.1,194.7,105.6,191.7z"/>
		<path d="M448.8-46.9c-36.6-2.3-42-22.3-39.2-45.5c1.1-9.3,9.6-23.6,16.8-25c19.1-3.7,50.9,26.3,47.3,44.9
			C471.9-62.7,457.6-55.3,448.8-46.9z"/>
		<path d="M106-12.1c65.6-13.4,75.5-2,57.4,62.6C119,40,108.1,28.4,106-12.1z"/>
		<path d="M125.9-48.3c-7.1-7.3-19.1-13.9-20.3-22.1c-2.8-19.2,27.7-50.3,46.5-46.4c7.3,1.5,14.2,18.5,16.1,29.4
			C173.2-58.6,156.7-49.9,125.9-48.3z"/>
	</g>
</g>
<rect x="219.7" y="56.5" class="st3" width="1620" height="440"/>
<text transform="matrix(1 0 0 1 219.7485 117.3185)" class="st4 st5 st6">tick Pics</text>
<rect x="148.7" y="133.8" class="st3" width="480.2" height="38.4"/>
<text transform="matrix(1 0 0 1 228.0685 147.4258)" class="st7 st5 st8">Love Real Wood. Love Sustainability</text>
<g id="Layer_2_1_">
	<rect x="41.3" y="4" class="st9" width="168.7" height="168.7"/>
	<rect x="71.6" y="22.8" class="st4" width="21.1" height="21.1"/>
	<rect x="100.2" y="22.8" class="st4" width="21.1" height="21.1"/>
	<rect x="130" y="22.8" class="st4" width="21.1" height="21.1"/>
	<rect x="158.6" y="22.8" class="st4" width="21.1" height="21.1"/>
	<rect x="71.6" y="78.4" class="st4" width="21.1" height="21.1"/>
	<rect x="100.2" y="78.4" class="st4" width="21.1" height="21.1"/>
	<rect x="130" y="78.4" class="st4" width="21.1" height="21.1"/>
	<rect x="158.6" y="78.4" class="st4" width="21.1" height="21.1"/>
	<rect x="71.6" y="134" class="st4" width="21.1" height="21.1"/>
	<rect x="100.2" y="134" class="st4" width="21.1" height="21.1"/>
	<rect x="130" y="134" class="st4" width="21.1" height="21.1"/>
	<rect x="158.6" y="134" class="st4" width="21.1" height="21.1"/>
	<rect x="158.6" y="106.2" class="st4" width="21.1" height="21.1"/>
	<rect x="71.6" y="50.6" class="st4" width="21.1" height="21.1"/>
</g>
</svg>
