<?xml version="1.0" encoding="utf-8"?>
<!-- Generator: Adobe Illustrator 17.0.0, SVG Export Plug-In . SVG Version: 6.00 Build 0)  -->
<!DOCTYPE svg PUBLIC "-//W3C//DTD SVG 1.1//EN" "http://www.w3.org/Graphics/SVG/1.1/DTD/svg11.dtd">
<svg version="1.1" id="Capa_1" xmlns="http://www.w3.org/2000/svg" xmlns:xlink="http://www.w3.org/1999/xlink" x="0px" y="0px"
	 width="612px" height="611.998px" viewBox="0 90.001 612 611.998" enable-background="new 0 90.001 612 611.998"
	 xml:space="preserve">
<g>
	<path fill="#27BDD8" d="M601.8,518.399c-5.633,0-10.2,4.567-10.2,10.2v81.6c-0.045,39.414-31.986,71.355-71.4,71.4H91.8
		c-39.414-0.045-71.355-31.986-71.4-71.4v-81.6c0-5.633-4.567-10.2-10.2-10.2S0,522.966,0,528.599v81.6
		c0.056,50.676,41.124,91.744,91.8,91.8h428.4c50.676-0.056,91.744-41.124,91.8-91.8v-81.6
		C612,522.966,607.433,518.399,601.8,518.399z"/>
	<path fill="#27BDD8" d="M197.819,222.813l97.981-97.991v468.18c0,5.633,4.567,10.2,10.2,10.2c5.633,0,10.2-4.567,10.2-10.2v-468.18
		l97.981,97.991c3.986,3.986,10.447,3.986,14.433,0c3.986-3.986,3.986-10.447,0-14.433L313.211,92.987
		c-3.983-3.982-10.44-3.982-14.423,0L183.386,208.38c-3.986,3.986-3.986,10.447,0,14.433
		C187.371,226.799,193.833,226.799,197.819,222.813L197.819,222.813z"/>
</g>
</svg>
